<svg xmlns="http://www.w3.org/2000/svg" version="1.1" xmlns:xlink="http://www.w3.org/1999/xlink" xmlns:svgjs="http://svgjs.dev/svgjs" width="250" height="150" preserveAspectRatio="none" viewBox="0 0 250 150">
    <g mask="url(&quot;#SvgjsMask1032&quot;)" fill="none">
        <rect width="250" height="150" x="0" y="0" fill="rgba(185, 202, 219, 1)"></rect>
        <circle r="1.255" cx="157.365" cy="5.795" filter="url(#SvgjsFilter1033)" fill="rgba(51, 121, 194, 0.58)"></circle>
        <circle r="1.295" cx="22.525" cy="36.895" filter="url(#SvgjsFilter1033)" fill="rgba(51, 121, 194, 0.58)"></circle>
        <circle r="2.095" cx="192.245" cy="53.025" filter="url(#SvgjsFilter1033)" fill="rgba(51, 121, 194, 0.58)"></circle>
        <circle r="2.29" cx="48.24" cy="92.83000000000001" filter="url(#SvgjsFilter1033)" fill="rgba(51, 121, 194, 0.58)"></circle>
        <circle r="1.41" cx="79.13" cy="25.93" filter="url(#SvgjsFilter1033)" fill="rgba(51, 121, 194, 0.58)"></circle>
        <circle r="2.35" cx="228.04" cy="135.34" filter="url(#SvgjsFilter1033)" fill="rgba(51, 121, 194, 0.58)"></circle>
        <circle r="1.505" cx="192.39499999999998" cy="34.305" filter="url(#SvgjsFilter1033)" fill="rgba(51, 121, 194, 0.58)"></circle>
        <circle r="2.085" cx="198.615" cy="8.105" filter="url(#SvgjsFilter1033)" fill="rgba(51, 121, 194, 0.58)"></circle>
        <circle r="2.14" cx="212.33999999999997" cy="81.68" filter="url(#SvgjsFilter1033)" fill="rgba(51, 121, 194, 0.58)"></circle>
        <circle r="2.02" cx="136.87" cy="68.92" filter="url(#SvgjsFilter1033)" fill="rgba(51, 121, 194, 0.58)"></circle>
        <circle r="2.49" cx="117.75999999999999" cy="140.95000000000002" filter="url(#SvgjsFilter1033)" fill="rgba(51, 121, 194, 0.58)"></circle>
        <circle r="1.97" cx="225.07" cy="146.23" filter="url(#SvgjsFilter1033)" fill="rgba(51, 121, 194, 0.58)"></circle>
        <circle r="1.85" cx="160.68" cy="60.22" filter="url(#SvgjsFilter1033)" fill="rgba(51, 121, 194, 0.58)"></circle>
        <circle r="2.28" cx="143.09" cy="23.080000000000002" filter="url(#SvgjsFilter1033)" fill="rgba(51, 121, 194, 0.58)"></circle>
        <circle r="2.08" cx="27.340000000000003" cy="106" filter="url(#SvgjsFilter1033)" fill="rgba(51, 121, 194, 0.58)"></circle>
        <circle r="2.475" cx="156.64499999999998" cy="12.805" filter="url(#SvgjsFilter1033)" fill="rgba(51, 121, 194, 0.58)"></circle>
        <circle r="1.95" cx="236.31" cy="31.57" filter="url(#SvgjsFilter1033)" fill="rgba(51, 121, 194, 0.58)"></circle>
        <circle r="1.66" cx="138.64" cy="13.9" filter="url(#SvgjsFilter1033)" fill="rgba(51, 121, 194, 0.58)"></circle>
        <circle r="2.23" cx="179.70999999999998" cy="15.72" filter="url(#SvgjsFilter1033)" fill="rgba(51, 121, 194, 0.58)"></circle>
        <circle r="2.145" cx="209.745" cy="29.605" filter="url(#SvgjsFilter1033)" fill="rgba(51, 121, 194, 0.58)"></circle>
        <path d="M218.9 89.6L217.5 92.2 216.5 90.7C216.4 90.5 216.2 90.5 215.9 90.6 215.8 90.7 215.7 91 215.9 91.2L217.1 93 216.1 95.1 213.6 91.2C213.4 91 213.2 91 213 91.1 212.8 91.2 212.7 91.5 212.9 91.7L215.6 95.9 214 99 212.3 95.4 210.9 99.2 209 96.3 211.2 91.8C211.3 91.7 211.3 91.7 211.3 91.6 211.3 91.4 211.2 91.3 211 91.2 210.9 91.1 210.6 91.2 210.4 91.4L208.4 95.5 207.2 93.6 208.2 91.6C208.3 91.5 208.3 91.4 208.3 91.3 208.3 91.2 208.2 91.1 208 91 207.8 90.9 207.6 91 207.5 91.2L206.7 92.8 205.1 90.3C205 90.1 204.7 90.1 204.5 90.2 204.3 90.3 204.2 90.6 204.4 90.8L206 93.2 204.2 93.3C204 93.3 203.8 93.6 203.8 93.7 203.8 94 204 94.2 204.3 94.1L206.5 94 207.7 96 203.2 96.2C203 96.2 202.8 96.4 202.8 96.6 202.8 96.8 203 97 203.3 97L208.2 96.8 210.2 99.7 206.2 99.5 208.7 102.5 205.2 102.7 202.5 98.5C202.3 98.3 202.1 98.3 201.9 98.4 201.7 98.4 201.7 98.7 201.8 98.9L204.3 102.7 202.1 102.9 200.8 101C200.7 100.8 200.4 100.7 200.2 100.9 200 101 200 101.2 200.2 101.5L201.1 102.9 198.2 103.1C197.9 103.1 197.8 103.3 197.8 103.5S198 103.9 198.2 103.9L201.1 103.7 200.4 105.3C200.2 105.5 200.3 105.8 200.5 105.9 200.7 106 201 105.9 201.1 105.7L202.1 103.7 204.4 103.6 202.2 107.6C202.2 107.9 202.3 108.1 202.4 108.2 202.7 108.3 203 108.2 203 108L205.3 103.5 208.8 103.3 206.6 106.6 210.5 106 208.9 109.1 203.9 109.3C203.7 109.4 203.5 109.6 203.5 109.8 203.6 110 203.7 110.2 204 110.2L208.6 109.9 207.5 112 205.3 112.1C205 112.1 204.8 112.3 204.9 112.5 204.9 112.7 205 113 205.3 112.9L207 112.8 205.8 115.4C205.6 115.7 205.7 115.9 206 116 206.1 116.1 206.4 116.1 206.5 115.8L207.8 113.2 208.8 114.7C208.9 114.8 209.2 114.9 209.3 114.8 209.5 114.7 209.6 114.5 209.6 114.5 209.5 114.4 209.5 114.3 209.5 114.2L208.3 112.4 209.2 110.3 211.7 114.2C211.9 114.3 212.1 114.4 212.3 114.3 212.5 114.2 212.5 114 212.5 113.9 212.5 113.8 212.5 113.8 212.4 113.7L209.7 109.4 211.3 106.4 213.1 109.9 214.4 106.2 216.4 109.1 214.1 113.6C214 113.8 214 114 214.3 114.2 214.5 114.3 214.7 114.2 214.9 114L216.9 109.9 218.1 111.8 217.1 113.8C217 114 217.1 114.2 217.3 114.4 217.5 114.4 217.7 114.3 217.9 114.2L218.6 112.6 220.3 115C220.4 115.3 220.6 115.3 220.9 115.2 220.9 115.1 221 114.9 221 114.8 221 114.7 221 114.7 220.9 114.6L219.4 112.2 221.1 112.1C221.4 112.1 221.5 111.8 221.5 111.6L221.5 111.6C221.5 111.4 221.3 111.2 221.1 111.2L218.8 111.4 217.6 109.4 222.1 109.2C222.4 109.2 222.5 109 222.5 108.7S222.3 108.3 222.1 108.3L217.1 108.6 215.2 105.7 219.1 105.9 216.6 102.9 220.1 102.7 222.8 106.9C223 107.1 223.3 107.1 223.4 107 223.6 106.9 223.6 106.7 223.5 106.4L221.1 102.6 223.3 102.5 224.5 104.4C224.6 104.6 224.9 104.7 225.1 104.5 225.3 104.4 225.3 104.2 225.2 103.9L224.2 102.5 227.2 102.3C227.4 102.3 227.6 102.1 227.6 101.9S227.4 101.5 227.1 101.5L224.2 101.6 225 100.1C225 100 225 99.9 225 99.8 225 99.7 224.9 99.6 224.8 99.5 224.6 99.4 224.3 99.5 224.3 99.7L223.2 101.7 221 101.8 223.1 97.8C223.1 97.7 223.1 97.6 223.1 97.5 223 97.4 223 97.3 222.9 97.2 222.6 97 222.4 97.1 222.3 97.4L220 101.9 216.5 102.1 218.7 98.8 214.8 99.4 216.4 96.3 221.4 96C221.6 96 221.8 95.8 221.8 95.6 221.8 95.3 221.6 95.2 221.3 95.2L216.9 95.4 217.8 93.4 220.1 93.3C220.3 93.3 220.5 93.1 220.5 92.8S220.3 92.4 220 92.4L218.3 92.5 219.6 90C219.6 89.9 219.6 89.8 219.6 89.7 219.6 89.6 219.5 89.5 219.4 89.4 219.2 89.3 218.9 89.3 218.9 89.6ZM217 99.9L215.2 102.5 217.3 105 214 104.9 212.9 107.8 211.5 105 208.3 105.5 210.1 102.8 208 100.4 211.2 100.5 212.4 97.5 213.8 100.4 217 99.9Z" fill="rgba(51, 121, 194, 0.58)"></path>
        <path d="M69.5 9.8L67.7 12.8 66.5 10.8C66.4 10.6 66.1 10.5 65.7 10.6 65.5 10.8 65.4 11.2 65.5 11.4L67 14.1 65.4 16.8 62.3 11.4C62.1 11 61.7 10.9 61.5 11.1 61.2 11.2 61.1 11.6 61.3 11.9L64.7 17.9 63.2 20.5 56.4 20.4 55.1 18.2 58.9 11.9C58.9 11.8 58.9 11.7 58.9 11.6 58.9 11.4 58.8 11.2 58.7 11.1 58.4 10.9 58.1 11 57.9 11.3L54.5 17.1 52.9 14.3 54.6 11.3C54.7 11.3 54.7 11.2 54.7 11.1 54.7 10.9 54.6 10.6 54.4 10.5 54.2 10.4 53.8 10.5 53.6 10.7L52.3 13.2 50.3 9.7C50.2 9.5 49.8 9.4 49.5 9.5 49.3 9.7 49.2 10 49.3 10.3L51.2 13.5 48.8 13.5C48.5 13.5 48.3 13.8 48.3 14 48.3 14.4 48.5 14.7 48.8 14.7L51.8 14.7 53.3 17.5 47.1 17.5C46.8 17.5 46.6 17.7 46.6 18 46.6 18.4 46.8 18.6 47.1 18.6L54 18.6 55.4 21 52 26.8 49.4 26.8 45.9 20.7C45.8 20.4 45.3 20.2 45.1 20.5 44.8 20.6 44.8 20.9 44.9 21.2L48.1 26.8 44.8 26.8 43.3 24C43.2 23.8 42.8 23.7 42.5 23.8S42.2 24.3 42.3 24.7L43.5 26.8 39.6 26.8C39.3 26.8 39.1 27.1 39.1 27.4 39.1 27.6 39.3 28 39.6 28L43.5 28 42.3 30.2C42.2 30.4 42.2 30.8 42.5 31 42.7 31.1 43.2 31 43.3 30.8L44.8 28 48.1 28 44.8 33.6C44.7 33.9 44.7 34.2 45 34.5 45.2 34.6 45.7 34.5 45.8 34.2L49.4 28 51.9 28.1 55.4 34 53.9 36.3 47 36.3C46.7 36.3 46.4 36.5 46.4 36.8 46.4 37.1 46.7 37.5 47 37.5L53.2 37.5 51.6 40.3 48.6 40.3C48.3 40.3 48.1 40.5 48.1 40.8 48.1 41.2 48.3 41.4 48.6 41.4L51 41.4 49.1 44.6C49 44.8 49.1 45.3 49.3 45.4 49.6 45.5 49.9 45.5 50.1 45.2L52.1 41.8 53.4 44.2C53.6 44.4 54 44.5 54.2 44.4 54.4 44.3 54.5 44.1 54.5 43.9 54.5 43.9 54.5 43.7 54.4 43.6L52.8 40.6 54.3 37.9 57.7 43.7C57.8 44 58.2 44.1 58.5 43.9 58.6 43.8 58.7 43.7 58.7 43.4 58.7 43.3 58.7 43.2 58.7 43.1L55 36.8 56.4 34.5 63.1 34.6 64.6 37.1 61.1 43.1C60.8 43.5 61 43.8 61.3 43.9 61.5 44.1 61.8 44 62.1 43.7L65.2 38.3 66.9 41.1 65.3 43.7C65.2 43.9 65.3 44.3 65.5 44.5 65.8 44.6 66.2 44.6 66.3 44.3L67.5 42.3 69.3 45.3C69.4 45.6 69.7 45.6 70.1 45.5 70.2 45.4 70.3 45.2 70.3 45 70.3 45 70.3 44.9 70.3 44.7L68.4 41.5 71.2 41.5C71.4 41.5 71.8 41.3 71.8 41 71.8 40.6 71.4 40.4 71.2 40.4L67.8 40.4 66.1 37.6 72.9 37.6C73.2 37.6 73.4 37.3 73.4 37S73.2 36.4 72.9 36.4L65.5 36.4 64.1 34 67.6 28.2 70.5 28.2 74 34.4C74.2 34.7 74.6 34.8 74.9 34.7 75 34.5 75.1 34.3 75.1 34.1 75.1 34 75.1 33.9 75 33.8L71.8 28.2 75.1 28.2 76.7 31C76.8 31.2 77.1 31.3 77.5 31.2 77.7 31 77.8 30.7 77.7 30.5L76.4 28.2 79.9 28.2C80.2 28.2 80.5 27.9 80.5 27.7 80.5 27.4 80.2 27 80 27L76.4 27 77.7 24.9C77.7 24.8 77.7 24.7 77.7 24.6 77.8 24.3 77.6 24.1 77.5 24 77.2 23.9 76.9 24 76.6 24.2L75.1 27 71.8 27 75.1 21.4C75.3 21.1 75.2 20.8 75 20.7 74.7 20.4 74.3 20.5 74.1 20.8L70.5 27 67.6 26.9 64.2 21 65.6 18.7 73 18.8C73.3 18.8 73.6 18.5 73.6 18.2 73.6 17.9 73.3 17.6 73 17.6L66.2 17.6 67.9 14.8 71.4 14.9C71.6 14.9 71.9 14.5 71.9 14.2 71.9 13.9 71.6 13.6 71.4 13.6L68.6 13.6 70.5 10.4C70.5 10.3 70.5 10.3 70.5 10.2 70.5 10 70.4 9.7 70.3 9.6 70 9.5 69.6 9.6 69.5 9.8ZM66.3 26.9L66.6 27.6 66.3 28.2 63.5 32.9 63.1 33.5 62.5 33.5 57 33.4 56.4 33.4 56 32.9 53.3 28.1 53 27.5 53.3 26.9 56.1 22.2 56.4 21.5 57.1 21.5 62.5 21.6 63.2 21.6 63.5 22.3 66.3 26.9Z" fill="rgba(51, 121, 194, 0.58)"></path>
        <path d="M131.2 14L127.7 15.8 127.7 13.4C127.7 13.2 127.5 12.9 127.2 12.8 126.9 12.9 126.6 13.1 126.7 13.4L126.6 16.4 123.9 17.9 124.2 11.8C124.1 11.5 123.9 11.2 123.6 11.2 123.2 11.2 122.9 11.4 123 11.7L122.8 18.5 118.7 20.7 119.5 15.4 115.1 18.5 115.2 13.8 121.1 10.6C121.2 10.6 121.3 10.5 121.3 10.4 121.5 10.2 121.5 10 121.3 9.8 121.2 9.6 120.9 9.5 120.6 9.6L115.2 12.5 115.4 9.5 117.9 8.1C118.1 8 118.2 8 118.2 7.9 118.3 7.8 118.3 7.5 118.2 7.3 118 7.1 117.7 7 117.5 7.1L115.4 8.2 115.4 4.3C115.5 4 115.2 3.8 114.9 3.7 114.6 3.7 114.4 3.9 114.4 4.3L114.3 8.2 112.3 6.9C112 6.8 111.6 6.9 111.5 7.1 111.3 7.4 111.4 7.7 111.7 7.9L114.2 9.5 114.1 12.5 109 9.3C108.7 9.2 108.4 9.2 108.2 9.5 108.1 9.7 108.1 10.1 108.4 10.3L114.1 13.8 114 18.4 109.8 15.2 110.2 20.4 106.3 18 106.4 11.3C106.4 10.9 106.1 10.7 105.9 10.7 105.7 10.7 105.4 10.9 105.3 11.3L105.2 17.4 102.7 15.8 102.7 12.8C102.8 12.4 102.5 12.2 102.1 12.2 101.9 12.2 101.6 12.4 101.6 12.8L101.5 15.1 98.2 13.1C97.9 12.9 97.6 12.9 97.4 13.2S97.3 13.8 97.6 14L100.9 16 99 17.2C98.6 17.3 98.5 17.7 98.6 17.9 98.8 18.2 99.2 18.3 99.4 18.1L102.1 16.7 104.6 18.3 99.3 21.1C99 21.3 98.9 21.7 99 21.9 99.2 22.3 99.5 22.3 99.8 22.1L105.7 18.9 109.7 21.4 104.8 23.3 109.5 25.6 105.5 27.8 99.8 24.3C99.5 24.1 99.1 24.3 99 24.5 98.8 24.8 98.9 25.1 99.2 25.3L104.4 28.5 101.7 29.9 99.1 28.3C98.8 28.2 98.5 28.2 98.4 28.5 98.2 28.7 98.3 29.1 98.5 29.3L100.5 30.5 97.2 32.4C96.8 32.5 96.7 32.9 97 33.1 97.1 33.4 97.4 33.5 97.6 33.3L101.1 31.5 101.1 33.9C101.1 34.1 101.3 34.4 101.5 34.4 101.8 34.4 102 34.3 102.1 34.2 102.1 34.1 102.2 34 102.1 33.8L102.2 30.9 104.9 29.4 104.6 35.5C104.7 35.8 104.9 36.1 105.2 36.1 105.4 36.1 105.6 36 105.8 35.8 105.8 35.7 105.8 35.7 105.8 35.6L106 28.8 110.1 26.6 109.3 31.9 113.7 28.8 113.6 33.4 107.7 36.7C107.5 36.8 107.3 37.1 107.5 37.5 107.6 37.7 107.9 37.8 108.2 37.7L113.6 34.7 113.4 37.8 110.9 39.2C110.5 39.3 110.5 39.6 110.6 40 110.8 40.2 111.1 40.3 111.4 40.2L113.4 39.1 113.4 42.9C113.3 43.3 113.6 43.5 113.9 43.5 114.1 43.5 114.3 43.4 114.3 43.3 114.4 43.2 114.5 43.1 114.4 42.9L114.6 39.1 116.5 40.3C116.8 40.5 117.2 40.3 117.3 40.1L117.3 40.1C117.5 39.9 117.4 39.6 117.1 39.4L114.6 37.8 114.7 34.8 119.8 37.9C120.1 38.1 120.4 38 120.6 37.7S120.7 37.2 120.4 37L114.7 33.5 114.8 28.9 119 32.1 118.6 26.8 122.5 29.3 122.4 36C122.4 36.4 122.7 36.5 122.9 36.5 123.2 36.6 123.4 36.3 123.5 36L123.7 30 126.1 31.5 126.1 34.5C126 34.8 126.3 35.1 126.7 35.1 126.9 35.1 127.2 34.9 127.3 34.5L127.3 32.2 130.6 34.2C130.9 34.4 131.2 34.3 131.4 34S131.5 33.5 131.2 33.3L127.9 31.2 129.8 30.1C130 30.1 130.1 30 130.1 29.9 130.2 29.7 130.2 29.6 130.2 29.4 130 29 129.6 29 129.4 29.2L126.7 30.5 124.2 29 129.5 26.2C129.6 26.1 129.7 26 129.7 25.9 129.8 25.7 129.8 25.5 129.8 25.4 129.6 25 129.3 24.9 129 25.2L123.1 28.3 119.1 25.9 124 23.9 119.3 21.7 123.3 19.5 129 23C129.3 23.1 129.7 23 129.8 22.8 130 22.5 129.9 22.2 129.6 22L124.5 18.9 127.1 17.4 129.7 18.9C130 19.1 130.3 19 130.4 18.7S130.5 18.2 130.3 18L128.3 16.8 131.6 14.9C131.8 14.9 131.8 14.8 131.9 14.7 131.9 14.6 132 14.3 131.8 14.1 131.7 13.9 131.4 13.7 131.2 14ZM121.3 23.8L117.3 25.4 117.7 29.7 114.3 27.1 110.8 29.5 111.3 25.3 107.5 23.4 111.5 21.8 111.1 17.6 114.5 20.1 118 17.8 117.4 22 121.3 23.8Z" fill="rgba(51, 121, 194, 0.58)"></path>
        <path d="M92.5 50.9L96.3 55.4 95.8 60.5 91.6 57.5 90.6 51.8C90.6 51.8 90.6 51.8 90.6 51.8 90.6 51.6 90.4 51.6 90.2 51.6 90 51.6 89.9 51.8 90 52L90.8 56.9 88.8 55.5 88.4 53.3C88.4 53.3 88.3 53.3 88.3 53.3 88.3 53.1 88.1 53.1 87.9 53.1 87.7 53.1 87.6 53.3 87.7 53.5L87.9 55 86.4 53.9C86.3 53.8 86 53.9 85.9 54 85.8 54.1 85.9 54.4 86 54.5L87.5 55.6 86 55.8C85.8 55.8 85.6 56 85.7 56.2 85.7 56.4 86 56.6 86.1 56.5L88.3 56.1 90.3 57.6 85.3 58.4C85.1 58.4 85 58.6 85.1 58.8 85.1 59 85.3 59.2 85.5 59.1L91.2 58.1 95.4 61.1 90.7 63.3 85.2 61.3C85 61.2 84.8 61.3 84.8 61.5 84.7 61.7 84.8 61.9 85 61.9L89.8 63.7 87.5 64.7 85.5 64C85.3 63.9 85.1 64 85 64.2 85 64.4 85 64.6 85.2 64.6L86.6 65.1 84.8 66C84.6 66 84.6 66.2 84.7 66.4 84.8 66.6 85 66.7 85.1 66.6L86.8 65.8 86.3 67.2C86.2 67.4 86.3 67.6 86.5 67.7S86.8 67.6 86.9 67.4L87.7 65.4 89.9 64.4 88.2 69.2C88.1 69.4 88.2 69.5 88.4 69.6 88.6 69.7 88.7 69.6 88.8 69.4L90.8 64 95.5 61.8 95 66.9 90.7 70.5C90.5 70.7 90.6 70.9 90.7 71.1 90.8 71.2 91 71.2 91.2 71.1L95.1 67.9 94.8 70.4 93.1 71.8C93 71.9 93 72.2 93.1 72.3 93.2 72.5 93.4 72.5 93.6 72.4L94.7 71.4 94.6 73.3C94.6 73.4 94.7 73.7 94.9 73.6 95.1 73.6 95.3 73.5 95.3 73.3L95.4 71.5 96.4 72.6C96.6 72.8 96.8 72.8 96.9 72.7 97 72.6 97.1 72.4 97 72.3 97 72.3 97 72.2 97 72.2L95.6 70.5 95.8 68 99 71.9C99.2 72 99.4 72 99.5 72 99.6 71.8 99.7 71.7 99.6 71.5 99.6 71.5 99.6 71.5 99.6 71.5L95.9 67.1 96.4 61.9 100.6 64.9 101.5 70.6C101.5 70.8 101.7 70.9 101.9 70.9 102.2 70.8 102.3 70.6 102.2 70.4L101.4 65.5 103.4 66.9 103.8 69.1C103.8 69.3 104 69.4 104.2 69.3 104.4 69.3 104.6 69.1 104.5 68.9L104.3 67.4 105.7 68.5C105.9 68.6 106.1 68.5 106.2 68.4 106.3 68.3 106.3 68.1 106.3 68 106.3 67.9 106.2 67.9 106.1 67.9L104.6 66.8 106.1 66.5C106.4 66.5 106.5 66.3 106.4 66.1 106.4 66.1 106.4 66.1 106.4 66.1 106.3 65.9 106.1 65.9 106 65.9L103.8 66.3 101.8 64.8 106.7 64C106.9 64 107.1 63.7 107 63.6 107 63.6 107 63.5 107 63.5 106.9 63.4 106.7 63.3 106.6 63.3L100.9 64.2 96.7 61.3 101.4 59.1 106.8 61.1C107 61.2 107.2 61.1 107.2 60.9 107.3 60.7 107.2 60.6 107 60.5L102.3 58.7 104.6 57.6 106.6 58.4C106.8 58.5 107 58.4 107 58.2S107 57.8 106.8 57.7L105.5 57.2 107.1 56.5C107.3 56.4 107.3 56.2 107.3 56 107.2 55.8 107 55.8 106.8 55.8L105.2 56.6 105.7 55.2C105.7 55.1 105.7 55 105.7 54.9S105.5 54.8 105.4 54.7C105.3 54.6 105.1 54.7 105 54.9L104.2 56.9 102 58 103.7 53.2C103.8 53.1 103.8 53 103.8 52.9 103.7 52.8 103.6 52.7 103.5 52.7 103.3 52.6 103.1 52.7 103.1 52.9L101.1 58.3 96.4 60.5 96.9 55.4 101.3 51.7C101.4 51.5 101.4 51.4 101.4 51.2 101.4 51.2 101.4 51.2 101.4 51.2 101.2 51 101 51 100.9 51.1L97 54.3 97.2 51.8 99 50.4C99.1 50.3 99.1 50.1 99.1 50 99.1 50 99 49.9 99 49.9 98.9 49.8 98.7 49.8 98.5 49.9L97.4 50.9 97.5 49C97.5 49 97.5 48.9 97.5 48.8 97.5 48.7 97.3 48.6 97.2 48.6 97 48.6 96.8 48.7 96.8 48.9L96.7 50.7 95.7 49.6C95.5 49.4 95.3 49.4 95.2 49.5 95 49.7 95 49.9 95.1 50L96.5 51.7 96.3 54.2 93 50.3C92.9 50.2 92.7 50.2 92.5 50.3 92.4 50.5 92.4 50.8 92.5 50.9Z" fill="rgba(51, 121, 194, 0.58)"></path>
        <path d="M5.2-11.5L0.7-12.3 0-13.3 1.2-15.9 2.5-16 6-13C6-13 6-13 6.1-13 6.2-12.9 6.3-12.9 6.4-13.1 6.5-13.2 6.5-13.3 6.4-13.5L3.3-16.1 5.3-16.2 6.6-15.1C6.6-15.1 6.7-15.1 6.7-15.1 6.8-15 6.9-15 7-15.2 7.1-15.2 7.1-15.4 7-15.6L6.1-16.3 7.6-16.4C7.7-16.4 7.8-16.6 7.9-16.7S7.7-17 7.5-17L6.1-16.9 6.8-17.8C6.9-17.9 6.9-18.1 6.8-18.2 6.7-18.3 6.5-18.3 6.4-18.2L5.2-16.8 3.2-16.7 5.8-19.7C6-19.9 5.9-20.1 5.8-20.2 5.7-20.2 5.5-20.2 5.4-20.1L2.4-16.6 1.1-16.5-0.5-18.8 0.1-20 4.4-21.6C4.6-21.6 4.6-21.8 4.6-21.9S4.4-22.1 4.2-22.1L0.4-20.7 1.3-22.5 3-23.1C3.1-23.2 3.2-23.3 3.1-23.5S2.9-23.7 2.8-23.7L1.7-23.2 2.3-24.6C2.4-24.8 2.3-24.9 2.1-25 2-25.1 1.8-25 1.8-24.9L1.1-23.5 0.7-24.6C0.7-24.8 0.5-24.9 0.4-24.8 0.2-24.7 0.1-24.6 0.2-24.4L0.8-22.8-0.1-21-1.4-24.8C-1.5-24.9-1.7-25-1.8-25S-2-24.8-2-24.6L-0.4-20.2-1-19-3.8-18.8-4.5-19.9-3.7-24.4C-3.7-24.6-3.8-24.7-3.9-24.8-4.1-24.8-4.2-24.7-4.3-24.5L-5-20.6-6.1-22.2-5.8-24C-5.8-24.1-5.9-24.3-6.1-24.3-6.2-24.3-6.4-24.2-6.4-24.1L-6.6-22.9-7.5-24.1C-7.5-24.2-7.7-24.3-7.9-24.2-8-24.1-8-23.9-7.9-23.8L-7.1-22.6-8.3-22.8C-8.4-22.8-8.6-22.7-8.6-22.6-8.6-22.4-8.6-22.3-8.4-22.3-8.4-22.3-8.4-22.2-8.4-22.2L-6.6-21.9-5.5-20.2-9.5-21C-9.6-21-9.8-20.9-9.8-20.8-9.8-20.6-9.7-20.5-9.6-20.4-9.6-20.4-9.6-20.4-9.6-20.4L-5-19.6-4.3-18.5-5.5-15.9-6.8-15.9-10.3-18.9C-10.4-19-10.6-18.9-10.7-18.9-10.8-18.7-10.8-18.5-10.7-18.4L-7.6-15.8-9.6-15.6-11-16.8C-11.1-16.9-11.3-16.9-11.3-16.8-11.5-16.6-11.4-16.4-11.3-16.3L-10.4-15.6-11.9-15.5C-12-15.4-12.1-15.3-12.2-15.1-12.1-15-12.1-14.9-12-14.9-11.9-14.9-11.9-14.9-11.8-14.9L-10.4-15-11.1-14.1C-11.3-13.9-11.2-13.8-11.1-13.7-11.1-13.7-11.1-13.7-11-13.7-10.9-13.6-10.8-13.6-10.7-13.7L-9.6-15-7.6-15.2-10.2-12.2C-10.3-12-10.3-11.8-10.1-11.8-10.1-11.7-10.1-11.7-10.1-11.7-10-11.6-9.8-11.7-9.7-11.7L-6.7-15.3-5.5-15.4-3.9-13.1-4.4-11.9-8.8-10.4C-8.9-10.3-9-10.1-9-10S-8.7-9.7-8.6-9.8L-4.8-11.2-5.6-9.4-7.3-8.7C-7.4-8.7-7.5-8.5-7.4-8.4-7.4-8.2-7.2-8.2-7.1-8.2L-6-8.6-6.6-7.3C-6.7-7.2-6.6-7-6.5-6.9-6.3-6.8-6.1-6.9-6.1-7L-5.4-8.3-5-7.2C-5-7.2-5-7.1-4.9-7.1-4.8-7-4.8-7-4.7-7.1-4.5-7.1-4.5-7.3-4.5-7.4L-5.1-9.1-4.2-10.9-2.9-7.1C-2.9-7-2.8-7-2.7-6.9-2.7-6.9-2.6-6.9-2.5-6.9-2.4-7-2.3-7.2-2.3-7.3L-3.8-11.7-3.3-12.8-0.5-13 0.2-12-0.6-7.4C-0.6-7.3-0.6-7.1-0.5-7.1-0.4-7.1-0.4-7.1-0.4-7.1-0.3-7.1-0.1-7.2-0.1-7.3L0.7-11.3 1.8-9.6 1.5-7.9C1.5-7.8 1.6-7.7 1.7-7.6 1.7-7.6 1.7-7.6 1.7-7.6 1.9-7.5 2-7.6 2.1-7.8L2.3-9 3.1-7.8C3.1-7.7 3.2-7.7 3.2-7.7 3.3-7.6 3.5-7.6 3.5-7.7 3.7-7.8 3.7-8 3.6-8.1L2.8-9.3 3.9-9.1C4.1-9.1 4.3-9.2 4.3-9.3 4.3-9.5 4.2-9.6 4-9.6L2.3-10 1.2-11.6 5.1-10.9C5.3-10.9 5.4-11 5.5-11.1 5.5-11.3 5.4-11.4 5.2-11.5ZM0.5-15.9L-0.4-13.9-0.6-13.6-0.9-13.6-3-13.4-3.4-13.4-3.6-13.7-4.8-15.4-4.9-15.7-4.8-16-3.9-17.9-3.7-18.2-3.4-18.3-1.3-18.4-1-18.5-0.7-18.2 0.5-16.4 0.6-16.2 0.5-15.9Z" fill="rgba(51, 121, 194, 0.58)"></path>
        <path d="M6.3 98.6L-0.2 97.2-1.5 95.1 0.7 95.6C0.9 95.7 1.1 95.5 1.2 95.3 1.2 95.1 1.1 94.8 0.9 94.8L-2.1 94.1-3.4 92.1-1 92 1.2 94.2C1.2 94.2 1.3 94.2 1.3 94.2 1.5 94.3 1.7 94.2 1.8 94.1 2 93.9 2 93.7 1.8 93.5L0.1 92 2.5 91.9 7.4 96.4C7.4 96.4 7.5 96.5 7.5 96.5 7.6 96.6 7.8 96.5 8 96.4 8.2 96.2 8.1 95.9 7.9 95.8L3.7 91.9 6.6 91.7 8.5 93.5C8.5 93.5 8.5 93.5 8.6 93.5 8.7 93.6 8.9 93.6 9 93.5 9.2 93.3 9.2 93 9 92.8L7.7 91.7 9.9 91.6C10.1 91.6 10.2 91.4 10.3 91.2 10.3 90.9 10.1 90.7 9.8 90.8L7.7 90.8 8.9 89.6C9 89.4 9.1 89.2 8.8 89 8.7 88.8 8.5 88.8 8.3 89L6.5 90.9 3.7 91 7.6 86.7C7.8 86.6 7.7 86.3 7.6 86.1 7.4 86 7.2 86 7 86.2L2.5 91.1 0.1 91.1 1.6 89.5C1.8 89.3 1.8 89.1 1.6 88.9 1.5 88.7 1.2 88.8 1 88.9L-1 91.2-3.5 91.3-2.3 89.2 0.6 88.3C0.8 88.2 0.9 88 0.9 87.8 0.9 87.6 0.6 87.4 0.3 87.5L-1.8 88.1-0.7 86 5.7 84.1C5.9 84 6 83.8 6 83.6 5.9 83.3 5.7 83.2 5.5 83.3L-0.1 85 1.2 82.5 3.7 81.7C3.9 81.6 4 81.4 3.9 81.2 3.9 81 3.6 80.8 3.4 80.9L1.8 81.4 2.7 79.5C2.9 79.3 2.8 79.1 2.6 79 2.3 78.8 2.1 78.9 2 79.1L1 81 0.5 79.4C0.5 79.2 0.3 79.1 0 79.1S-0.3 79.4-0.2 79.6L0.5 82-0.9 84.6-2.6 79.1C-2.6 78.8-2.9 78.7-3.1 78.8-3.3 78.9-3.4 79.1-3.4 79.3L-1.4 85.6-2.5 87.8-3.2 85.6C-3.3 85.4-3.5 85.3-3.7 85.3-3.9 85.4-4.1 85.6-4 85.9L-3.1 88.8-4.2 90.9-5.4 88.9-4.7 85.8C-4.7 85.7-4.9 85.4-5.1 85.4-5.3 85.3-5.5 85.5-5.6 85.7L-6.1 87.9-7.3 85.9-5.9 79.4C-5.8 79.1-5.9 79-6.2 78.9-6.4 78.8-6.6 79-6.7 79.2L-8 84.9-9.5 82.4-9 79.9C-8.9 79.7-9 79.5-9.3 79.4-9.4 79.4-9.7 79.6-9.7 79.8L-10.1 81.4-11.3 79.7C-11.3 79.4-11.6 79.4-11.9 79.5-12 79.7-12.1 79.9-12 80.1L-10.8 81.9-12.5 81.5C-12.8 81.4-13 81.6-13 81.8-13.1 82-13 82.2-12.8 82.2-12.7 82.3-12.7 82.3-12.7 82.3L-10.2 82.9-8.7 85.4-14.3 84.1C-14.6 84-14.8 84.1-14.9 84.4-14.9 84.6-14.8 84.7-14.6 84.8-14.6 84.8-14.6 84.8-14.6 84.8L-8 86.4-6.8 88.3-9 87.8C-9.2 87.8-9.4 87.9-9.5 88.1-9.5 88.3-9.4 88.5-9.3 88.6-9.2 88.7-9.2 88.7-9.2 88.7L-6.1 89.4-4.9 91.3-7.2 91.4-9.5 89.4C-9.7 89.2-10 89.2-10.1 89.3-10.3 89.5-10.3 89.8-10.1 89.9L-8.4 91.4-10.8 91.6-15.7 87C-15.8 86.9-16.1 86.9-16.3 87-16.4 87.2-16.4 87.5-16.3 87.7L-12 91.6-14.9 91.7-16.7 90C-16.9 89.8-17.2 89.8-17.3 90.1-17.5 90.2-17.5 90.4-17.3 90.6L-16 91.8-18.2 91.9C-18.4 91.9-18.5 92-18.6 92.3-18.5 92.4-18.4 92.6-18.3 92.6-18.3 92.6-18.2 92.7-18.1 92.7L-16 92.6-17.2 93.9C-17.3 94-17.3 94.3-17.2 94.5-17.1 94.5-17.1 94.5-17.1 94.5-16.9 94.6-16.7 94.5-16.6 94.4L-14.9 92.6-12 92.4-15.9 96.7C-16 96.9-16 97.1-15.9 97.3-15.9 97.3-15.8 97.4-15.8 97.4-15.6 97.4-15.4 97.4-15.3 97.3L-10.7 92.4-8.4 92.3-9.9 93.9C-10 94.2-10.1 94.4-9.9 94.5-9.9 94.6-9.8 94.6-9.8 94.6-9.7 94.7-9.5 94.7-9.3 94.5L-7.3 92.2-4.9 92.2-6 94.2-8.9 95.2C-9.1 95.2-9.3 95.5-9.2 95.7-9.1 95.9-8.9 96-8.7 96L-6.5 95.3-7.6 97.4-13.9 99.4C-14.1 99.4-14.3 99.7-14.2 99.9-14.1 100.1-13.9 100.2-13.7 100.2L-8.2 98.4-9.5 101-11.9 101.8C-12.1 101.8-12.2 102.1-12.2 102.3S-11.9 102.6-11.6 102.5L-10.1 102.1-11 103.9C-11.2 104.1-11.1 104.3-10.9 104.5-10.6 104.6-10.4 104.5-10.3 104.3L-9.3 102.4-8.8 104.1C-8.7 104.2-8.7 104.3-8.6 104.3-8.5 104.4-8.4 104.4-8.3 104.3-8 104.3-7.9 104-8 103.8L-8.8 101.4-7.4 98.8-5.6 104.4C-5.6 104.5-5.6 104.6-5.5 104.7-5.4 104.7-5.2 104.7-5.1 104.7-4.9 104.6-4.8 104.4-4.9 104.1L-6.9 97.8-5.8 95.7-5.1 97.9C-5.1 98-5 98.1-4.9 98.1-4.8 98.1-4.7 98.2-4.6 98.1-4.4 98.1-4.2 97.8-4.3 97.6L-5.2 94.6-4.1 92.6-2.8 94.6-3.6 97.6C-3.6 97.8-3.5 98-3.3 98.1-3.3 98.1-3.3 98.1-3.2 98-3 98.1-2.8 98-2.7 97.7L-2.2 95.6-0.9 97.6-2.5 104.1C-2.5 104.3-2.4 104.4-2.2 104.5-2.1 104.5-2.1 104.5-2.1 104.5-1.9 104.6-1.7 104.5-1.6 104.3L-0.3 98.5 1.2 101 0.7 103.5C0.6 103.7 0.7 103.9 0.9 104 0.9 104 1 104 1 104 1.2 104 1.4 103.9 1.5 103.7L1.8 102 2.9 103.8C3 103.9 3.1 103.9 3.2 103.9 3.2 104 3.4 104 3.5 103.9 3.7 103.8 3.8 103.5 3.7 103.4L2.5 101.5 4.2 101.9C4.5 102 4.7 101.8 4.7 101.7 4.8 101.4 4.6 101.2 4.4 101.1L1.9 100.6 0.4 98.1 6 99.4C6.3 99.5 6.5 99.3 6.5 99.1 6.6 98.9 6.5 98.6 6.3 98.6Z" fill="rgba(51, 121, 194, 0.58)"></path>
        <path d="M171.7 22.1L174 13.2 176.2 11.9 181.1 14.7 181.2 17.3 174.7 23.8C174.6 23.9 174.6 23.9 174.6 24 174.4 24.2 174.4 24.4 174.7 24.7 175 24.8 175.2 24.9 175.5 24.6L181.1 18.9 181.2 22.9 178.7 25.4C178.7 25.4 178.7 25.5 178.7 25.5 178.5 25.7 178.5 26 178.8 26.2 178.9 26.4 179.3 26.4 179.6 26.2L181.2 24.6 181.2 27.5C181.2 27.8 181.5 28 181.8 28.1S182.4 27.8 182.4 27.4L182.4 24.6 184 26.2C184.3 26.4 184.7 26.4 184.9 26.2 185 26 185.1 25.6 184.9 25.4L182.3 22.9 182.3 18.8 188.1 24.5C188.3 24.7 188.7 24.7 188.9 24.6 189.1 24.3 189.1 23.9 188.9 23.7L182.3 17.3 182.3 14.6 187.1 11.8 189.4 13.1 191.9 21.9C192 22.2 192.3 22.4 192.6 22.3S193.1 22 193 21.6L190.7 13.9 194.3 15.9 195.2 19.2C195.3 19.5 195.6 19.7 196 19.7S196.5 19.3 196.4 19L195.7 16.7 198.3 18.1C198.6 18.3 198.9 18.1 199.1 17.8 199.3 17.5 199.2 17.2 198.9 17.1L196.3 15.6 198.6 15C199 14.9 199.1 14.7 198.9 14.3 198.9 14 198.6 13.8 198.3 13.9L194.9 14.8 191.4 12.8 199.2 10.7C199.5 10.6 199.7 10.3 199.6 10S199.2 9.5 198.9 9.6L190 12 187.7 10.7 187.7 5.1 189.9 3.8 198.8 6.2C199.2 6.2 199.4 6 199.6 5.7 199.6 5.4 199.4 5.1 199.1 4.9L191.3 3 194.8 0.9 198.2 1.9C198.5 1.9 198.8 1.7 199 1.4 199 1.2 198.8 0.8 198.4 0.7L196.2 0.1 198.8-1.4C199-1.5 199-1.9 198.9-2.2 198.7-2.4 198.4-2.5 198.2-2.4L195.6-0.9 196.2-3.2C196.2-3.5 196-3.8 195.8-3.8 195.5-4 195.3-3.9 195.1-3.6 195.1-3.6 195.1-3.5 195.1-3.5L194.2 0 190.7 2 192.7-5.8C192.8-6.2 192.7-6.5 192.4-6.5 192-6.6 191.8-6.5 191.7-6.3 191.6-6.2 191.6-6.2 191.6-6.2L189.3 2.9 187.1 4.1 182.1 1.3 182.2-1.2 188.6-7.9C188.8-8 188.8-8.4 188.7-8.6 188.4-8.9 188-8.9 187.8-8.6L182.1-2.9 182.1-6.9 184.5-9.4C184.8-9.7 184.9-10 184.6-10.2 184.3-10.4 183.9-10.4 183.7-10.3L182.1-8.5 182.1-11.5C182-11.8 181.8-12 181.4-12.1 181.3-12 181.1-11.9 181-11.7 180.9-11.6 180.9-11.6 181-11.5L181-8.5 179.2-10.2C179-10.4 178.7-10.3 178.5-10.2 178.4-10.1 178.4-10.1 178.3-10 178.2-9.8 178.2-9.6 178.4-9.4L180.9-6.9 181-2.9 175.2-8.6C174.9-8.7 174.6-8.8 174.4-8.5 174.3-8.5 174.3-8.5 174.2-8.4 174.1-8.2 174.2-7.9 174.3-7.7L181-1.2 181 1.3 176.2 4.2 173.9 3 171.5-6C171.4-6.3 171-6.5 170.7-6.4S170.2-5.9 170.3-5.6L172.5 2.1 169 0.2 168-3.2C167.9-3.5 167.6-3.7 167.3-3.6 167-3.5 166.9-3.2 166.9-2.9L167.6-0.7 165-2.1C164.8-2.2 164.4-2.2 164.2-1.9 164-1.6 164.2-1.2 164.4-1.1L167 0.4 164.7 1C164.5 1.1 164.4 1.1 164.3 1.2 164.2 1.4 164.3 1.6 164.3 1.7 164.4 2 164.7 2.2 165 2.1L168.4 1.2 171.9 3.2 164.1 5.3C163.9 5.3 163.9 5.4 163.8 5.6 163.7 5.7 163.7 5.8 163.7 6 163.8 6.3 164.2 6.5 164.5 6.4L173.3 4 175.6 5.3 175.6 10.8 173.4 12.2 164.4 9.8C164.2 9.8 163.9 9.9 163.8 10.1 163.7 10.2 163.7 10.2 163.8 10.2 163.7 10.5 163.8 10.9 164.2 11L172 13 168.5 15.1 165.1 14.1C164.8 14.1 164.6 14.3 164.5 14.5 164.5 14.5 164.4 14.6 164.4 14.6 164.3 14.8 164.5 15.2 164.8 15.3L167.2 15.8 164.6 17.4C164.5 17.4 164.4 17.5 164.4 17.6 164.3 17.8 164.3 18 164.4 18.1 164.5 18.4 164.9 18.5 165.2 18.4L167.7 16.9 167.1 19.1C167 19.5 167.2 19.8 167.6 19.9 167.8 19.9 168.2 19.7 168.2 19.5L169.1 16 172.5 14 170.5 21.8C170.5 22.2 170.7 22.4 171 22.6 171.2 22.6 171.6 22.4 171.7 22.1ZM181.1 13.3L177.4 11.1 176.8 10.8 176.8 10.2 176.7 5.9 176.8 5.2 177.3 4.9 181 2.7 181.5 2.4 182.1 2.7 185.9 4.9 186.5 5.2 186.5 5.8 186.5 10.1 186.5 10.7 185.9 11.1 182.3 13.3 181.7 13.6 181.1 13.3Z" fill="rgba(51, 121, 194, 0.58)"></path>
        <path d="M166.1 127.4L160.2 120.4 160.3 117.9 165.4 115.4 167.6 116.9 169.2 125.9C169.2 126 169.2 126 169.3 126.1 169.4 126.3 169.6 126.5 169.9 126.5 170.2 126.3 170.4 126.1 170.3 125.8L168.9 117.8 172.2 120.1 172.9 123.6C172.9 123.6 172.9 123.7 172.9 123.7 173 123.9 173.2 124 173.5 124 173.8 124 174 123.7 174 123.3L173.6 121 176 122.7C176.2 122.9 176.6 122.8 176.8 122.6S176.9 121.9 176.6 121.7L174.3 120.1 176.5 119.6C176.9 119.6 177.1 119.2 177 118.9 176.9 118.7 176.7 118.4 176.3 118.5L172.9 119.2 169.5 116.8 177.5 115.4C177.8 115.3 178 115 178 114.7 177.9 114.4 177.6 114.2 177.3 114.2L168.2 115.9 166 114.4 166.5 108.9 168.9 107.7 177.6 110.8C177.9 110.9 178.2 110.7 178.3 110.4S178.3 109.8 178 109.7L170.3 107.1 174 105.3 177.3 106.5C177.6 106.6 177.9 106.4 178.1 106.1S178 105.5 177.8 105.4L175.4 104.7 178.1 103.4C178.4 103.2 178.5 102.8 178.4 102.5 178.2 102.2 177.9 102.1 177.6 102.3L174.9 103.5 175.7 101.3C175.9 101 175.8 100.7 175.4 100.6 175.1 100.5 174.8 100.7 174.7 101L173.5 104.2 169.8 106 172.6 98.4C172.7 98.1 172.5 97.7 172.2 97.6S171.6 97.6 171.5 97.9L168.4 106.6 166 107.8 161.4 104.6 161.6 102 168.6 96.1C168.9 95.8 168.9 95.5 168.7 95.2 168.5 94.9 168.1 95 167.8 95.1L161.7 100.3 162 96.4 164.8 94.1C165 93.9 165 93.5 164.8 93.2 164.6 93 164.2 93 164 93.2L162.2 94.7 162.4 91.8C162.4 91.5 162.2 91.3 161.9 91.2 161.5 91.2 161.3 91.4 161.3 91.7L161.1 94.6 159.5 92.8C159.3 92.6 158.9 92.6 158.7 92.8 158.4 92.9 158.4 93.2 158.6 93.5 158.6 93.5 158.6 93.6 158.6 93.6L160.9 96.3 160.6 100.3 155.3 94.2C155.1 93.9 154.8 93.8 154.5 94 154.3 94.3 154.3 94.5 154.4 94.7 154.4 94.8 154.4 94.8 154.4 94.8L160.5 101.9 160.2 104.5 155.1 106.9 153.1 105.4 151.3 96.3C151.3 96.1 151 95.9 150.7 95.8 150.4 95.9 150.2 96.2 150.2 96.6L151.6 104.5 148.3 102.3 147.7 98.8C147.6 98.4 147.4 98.2 147.1 98.3 146.7 98.4 146.5 98.7 146.5 98.9L147 101.3 144.6 99.6C144.3 99.5 144 99.5 143.7 99.8 143.7 99.9 143.7 100.2 143.8 100.4 143.8 100.5 143.8 100.5 144 100.5L146.4 102.2 144 102.7C143.7 102.8 143.6 103.1 143.6 103.3 143.6 103.4 143.6 103.4 143.6 103.5 143.7 103.7 143.9 103.9 144.2 103.9L147.7 103.2 151 105.4 143 106.9C142.7 107 142.5 107.3 142.6 107.6 142.6 107.7 142.6 107.7 142.6 107.8 142.7 108 143 108.1 143.3 108.1L152.4 106.4 154.4 107.9 154 113.5 151.7 114.6 143 111.4C142.7 111.3 142.3 111.5 142.2 111.8S142.3 112.5 142.6 112.6L150.2 115.3 146.6 117 143.2 115.9C143 115.8 142.6 115.9 142.5 116.2 142.4 116.5 142.6 116.8 142.9 116.9L145.1 117.7 142.4 119C142.2 119.1 142 119.4 142.1 119.7 142.3 120 142.7 120.2 142.9 120.1L145.6 118.8 144.8 121C144.8 121.2 144.7 121.3 144.8 121.4 144.9 121.6 145 121.7 145.2 121.7 145.5 121.8 145.8 121.7 145.9 121.4L147.1 118.1 150.7 116.4 148 124C147.9 124.1 147.9 124.2 148 124.4 148.1 124.5 148.1 124.6 148.3 124.7 148.6 124.8 149 124.6 149.1 124.3L152.2 115.7 154.6 114.6 159.1 117.7 159 120.3 151.9 126.3C151.7 126.5 151.6 126.8 151.7 127 151.8 127.1 151.8 127.1 151.9 127 152 127.3 152.4 127.4 152.7 127.1L158.8 121.9 158.5 126 155.8 128.3C155.6 128.5 155.6 128.7 155.7 128.9 155.7 128.9 155.8 129 155.8 129 155.9 129.3 156.3 129.4 156.5 129.1L158.4 127.5 158.2 130.4C158.1 130.6 158.2 130.7 158.2 130.8 158.3 131 158.5 131.1 158.6 131.1 159 131.2 159.2 130.9 159.3 130.6L159.6 127.7 161 129.5C161.3 129.7 161.7 129.8 161.9 129.5 162.1 129.3 162.1 128.9 161.9 128.8L159.6 126 160 122.1 165.2 128.2C165.5 128.5 165.8 128.4 166.1 128.3 166.3 128.1 166.3 127.7 166.1 127.4ZM164.3 114.6L160.4 116.5 159.8 116.8 159.2 116.4 155.8 114 155.2 113.5 155.2 112.9 155.6 108.7 155.6 108 156.2 107.7 160.1 105.9 160.8 105.6 161.3 106 164.8 108.4 165.3 108.7 165.3 109.5 165 113.7 164.9 114.3 164.3 114.6Z" fill="rgba(51, 121, 194, 0.58)"></path>
        <path d="M166.8 43.6L171.7 50 170.7 57.1 165.1 52.7 164.1 44.7C164.1 44.7 164 44.6 164 44.6 164 44.4 163.7 44.3 163.5 44.3 163.2 44.3 163 44.6 163.1 44.9L164 51.9 161.2 49.8 160.8 46.7C160.8 46.7 160.8 46.6 160.8 46.6 160.7 46.4 160.4 46.3 160.2 46.3 159.9 46.3 159.7 46.6 159.8 46.9L160.1 49 158 47.4C157.9 47.2 157.5 47.3 157.3 47.5 157.1 47.7 157.3 48 157.4 48.2L159.4 49.8 157.3 50C157 50 156.8 50.3 156.9 50.6 157 50.9 157.2 51.1 157.5 51L160.6 50.5 163.3 52.7 156.3 53.6C156 53.6 155.8 53.9 155.9 54.2 155.9 54.5 156.2 54.7 156.5 54.5L164.5 53.6 170.2 58 163.4 60.7 155.9 57.6C155.7 57.5 155.4 57.6 155.3 57.9 155.2 58.1 155.3 58.4 155.6 58.5L162.2 61.2 158.9 62.6 156.1 61.4C155.9 61.3 155.6 61.4 155.5 61.7 155.4 61.9 155.5 62.2 155.8 62.3L157.7 63.1 155.1 64.1C154.8 64.1 154.8 64.5 154.9 64.8 155 65 155.2 65.1 155.5 65L157.8 64.1 157 66C156.9 66.2 157.1 66.5 157.3 66.6S157.8 66.6 157.9 66.3L159.1 63.5 162.3 62.2 159.6 68.8C159.5 69.1 159.6 69.3 159.8 69.4 160.1 69.6 160.4 69.4 160.5 69.2L163.6 61.7 170.3 59 169.3 66.1 163.1 70.9C162.8 71.1 162.8 71.4 162.9 71.6 163.1 71.9 163.5 71.8 163.7 71.7L169.3 67.4 168.8 70.9 166.4 72.8C166.1 73 166.1 73.3 166.3 73.5 166.5 73.8 166.8 73.8 166.9 73.7L168.6 72.4 168.3 74.9C168.3 75.1 168.4 75.5 168.7 75.5 169 75.4 169.3 75.3 169.3 75L169.6 72.5 170.9 74.1C171.1 74.4 171.4 74.4 171.6 74.3 171.7 74.1 171.9 73.9 171.8 73.7 171.8 73.7 171.7 73.6 171.7 73.6L169.9 71.1 170.4 67.7 174.6 73.2C174.8 73.5 175.2 73.5 175.3 73.4 175.5 73.2 175.6 73 175.5 72.8 175.5 72.8 175.5 72.7 175.5 72.7L170.5 66.3 171.5 59.2 177.2 63.6 178.2 71.6C178.2 71.9 178.5 72.1 178.7 72 179.1 72 179.3 71.7 179.1 71.4L178.3 64.4 181 66.5 181.5 69.6C181.5 69.9 181.8 70.1 182 70 182.3 70 182.5 69.7 182.4 69.4L182.2 67.3 184.2 68.9C184.4 69 184.8 69 184.9 68.8 185.1 68.7 185.1 68.4 185 68.3 185 68.2 184.9 68.1 184.8 68L182.8 66.4 184.9 66.2C185.2 66.2 185.4 65.9 185.3 65.6 185.3 65.6 185.2 65.5 185.2 65.5 185.2 65.4 184.9 65.2 184.7 65.2L181.6 65.7 178.9 63.5 185.9 62.7C186.2 62.6 186.4 62.3 186.2 62.1 186.2 62.1 186.2 62 186.2 62 186.1 61.8 185.9 61.7 185.7 61.7L177.7 62.7 172 58.3 178.6 55.5 186.1 58.7C186.4 58.8 186.6 58.7 186.7 58.4 186.8 58.2 186.7 57.9 186.5 57.8L180 55 183.2 53.7 186 54.8C186.3 54.9 186.5 54.8 186.6 54.6S186.6 54 186.4 53.9L184.5 53.1 186.8 52.2C187.1 52.1 187.2 51.8 187.1 51.5 187 51.3 186.7 51.2 186.4 51.3L184.1 52.2 184.9 50.3C184.9 50.2 185 50.1 184.9 49.9S184.7 49.7 184.6 49.6C184.3 49.5 184.1 49.6 184 49.9L182.8 52.7 179.6 54 182.3 47.4C182.4 47.3 182.4 47.1 182.4 47 182.3 46.9 182.2 46.7 182 46.7 181.8 46.6 181.5 46.7 181.4 46.9L178.3 54.4 171.6 57.2 172.6 50 179 45.1C179.1 44.9 179.2 44.7 179.1 44.5 179.1 44.5 179.1 44.4 179.1 44.4 178.9 44.2 178.6 44.2 178.4 44.3L172.8 48.6 173.3 45.1 175.8 43.2C175.9 43.1 176 42.8 176 42.7 176 42.7 175.9 42.6 175.9 42.6 175.7 42.3 175.4 42.4 175.2 42.4L173.6 43.7 173.9 41.2C173.9 41.1 173.9 41 173.9 40.9 173.8 40.7 173.6 40.6 173.4 40.5 173.1 40.6 172.8 40.7 172.9 41L172.5 43.5 171.2 41.9C171 41.6 170.7 41.7 170.5 41.7 170.3 41.9 170.3 42.2 170.4 42.4L172.3 44.9 171.8 48.4 167.5 42.8C167.3 42.5 167 42.6 166.8 42.6 166.6 43 166.6 43.3 166.8 43.6Z" fill="rgba(51, 121, 194, 0.58)"></path>
        <path d="M48.5 110.8L46.7 108.8 48.4 108.4C48.6 108.4 48.8 108.2 48.8 107.9 48.7 107.7 48.4 107.5 48.3 107.6L46 108.1 44.4 106.3 49 105.3C49.3 105.2 49.4 105 49.3 104.8 49.3 104.5 49.1 104.3 48.8 104.4L43.8 105.5 42.3 103.9 43.8 99.1 45.7 98.6 49.4 102.8C49.4 102.8 49.5 102.8 49.6 102.8 49.7 102.9 49.9 102.8 50 102.8 50.2 102.6 50.2 102.3 50 102.2L46.6 98.4 49 97.9 50.7 99.8C50.7 99.9 50.8 99.9 50.9 99.9 51 100 51.2 99.9 51.3 99.8 51.5 99.7 51.5 99.4 51.4 99.2L49.9 97.7 52.8 97C53 97 53.2 96.8 53.2 96.5 53 96.3 52.8 96.2 52.7 96.2L49.9 96.8 50.4 95.2C50.5 94.9 50.3 94.7 50.2 94.6 49.9 94.6 49.6 94.6 49.6 94.9L48.9 97 46.6 97.5 48 93.1C48 92.8 47.9 92.6 47.7 92.5 47.5 92.5 47.2 92.6 47.2 92.8L45.6 97.7 43.6 98.2 40.2 94.4 40.8 92.6 45.9 91.5C46.2 91.5 46.4 91.2 46.3 91 46.3 90.7 46 90.6 45.8 90.6L41.1 91.7 41.8 89.4 44.1 88.9C44.3 88.8 44.5 88.6 44.5 88.4S44.1 88 43.9 88L42.1 88.4 43 85.6C43.1 85.4 42.9 85.2 42.6 85.1 42.5 85 42.2 85.1 42.1 85.3L41.2 88.1 39.9 86.8C39.8 86.6 39.5 86.5 39.3 86.7 39.2 86.9 39.2 87.2 39.3 87.3L40.9 89.1 40.2 91.4 36.9 87.8C36.7 87.7 36.5 87.6 36.3 87.8 36.1 87.9 36.1 88.3 36.2 88.4L39.9 92.3 39.3 94.2 34.3 95.3 33 93.7 34.5 88.8C34.6 88.6 34.5 88.4 34.3 88.3 34 88.2 33.7 88.3 33.7 88.5L32.3 93 30.6 91.2 31.3 89.1C31.4 88.9 31.3 88.6 31 88.6 30.8 88.5 30.6 88.6 30.5 88.8L30 90.5 28.1 88.4C28 88.3 27.6 88.3 27.5 88.4 27.3 88.6 27.3 88.9 27.5 89L29.4 91.2 27.4 91.6C27.2 91.7 27.1 92 27.1 92.1 27.1 92.3 27.3 92.5 27.4 92.5 27.4 92.5 27.5 92.5 27.6 92.5L30.1 92 31.8 93.7 26.9 94.9C26.6 94.9 26.4 95.1 26.5 95.4 26.6 95.5 26.6 95.6 26.8 95.6 26.9 95.6 26.9 95.7 27 95.7L32.4 94.4 33.7 95.9 32.2 100.7 30 101.2 26.5 97.4C26.3 97.1 26 97.1 25.9 97.3 25.7 97.5 25.7 97.7 25.9 98L29.1 101.4 26.7 102 25.1 100.3C25 100.1 24.7 100.1 24.5 100.2 24.4 100.5 24.3 100.7 24.5 100.8L25.7 102.2 23.1 102.8C22.9 102.8 22.8 103 22.8 103.3 22.8 103.4 23 103.5 23.1 103.6 23.1 103.6 23.2 103.6 23.3 103.6L26 103 25.4 105C25.3 105.1 25.4 105.4 25.7 105.5 25.9 105.6 26.1 105.4 26.2 105.2L27 102.8 29.3 102.2 27.8 107C27.7 107.3 27.9 107.5 28.2 107.6S28.6 107.6 28.7 107.3L30.4 102 32.3 101.6 35.8 105.4 35.1 107.4 29.9 108.6C29.6 108.7 29.5 108.9 29.5 109.2 29.5 109.3 29.7 109.4 29.8 109.4 29.9 109.5 30 109.5 30.1 109.4L34.8 108.4 34.1 110.7 31.7 111.3C31.5 111.3 31.4 111.5 31.4 111.8 31.5 112 31.7 112.1 31.9 112.1L33.8 111.6 33 114.2C32.9 114.3 33.1 114.7 33.2 114.7 33.5 114.8 33.8 114.6 33.8 114.5L34.7 111.9 35.9 113.4C35.9 113.4 36 113.4 36.1 113.4 36.3 113.5 36.4 113.4 36.5 113.4 36.7 113.2 36.7 112.9 36.6 112.7L35 111 35.7 108.7 38.9 112.2C39.1 112.5 39.4 112.5 39.5 112.3 39.7 112.1 39.7 111.9 39.6 111.7L36 107.7 36.6 105.6 41.6 104.5 43 106 41.3 111.3C41.2 111.6 41.3 111.8 41.6 111.8 41.8 111.9 42 111.8 42.1 111.6L43.6 106.7 45.2 108.5 44.5 111C44.4 111.2 44.6 111.5 44.8 111.6 45.1 111.6 45.3 111.4 45.3 111.3L46 109.3 47.8 111.4C47.9 111.4 47.9 111.4 48 111.4 48.2 111.5 48.3 111.5 48.5 111.4 48.6 111.2 48.6 110.9 48.5 110.8ZM36.9 104.7L36.4 104.8 36.1 104.4 33.3 101.3 33 101 33.1 100.5 34.3 96.6 34.5 96.1 35 96 39 95.1 39.5 95 39.9 95.4 42.6 98.4 43 98.8 42.8 99.3 41.6 103.2 41.5 103.7 40.9 103.8 36.9 104.7Z" fill="rgba(51, 121, 194, 0.58)"></path>
    </g>
    <defs>
        <mask id="SvgjsMask1032">
            <rect width="250" height="150" fill="#ffffff"></rect>
        </mask>
        <filter id="SvgjsFilter1033">
            <feGaussianBlur stdDeviation="1"></feGaussianBlur>
        </filter>
    </defs>
</svg>