<svg xmlns="http://www.w3.org/2000/svg" version="1.1" xmlns:xlink="http://www.w3.org/1999/xlink" xmlns:svgjs="http://svgjs.dev/svgjs" width="250" height="150" preserveAspectRatio="none" viewBox="0 0 250 150">
    <g mask="url(&quot;#SvgjsMask1404&quot;)" fill="none">
        <rect width="250" height="150" x="0" y="0" fill="#0e2a47"></rect>
        <g mask="url(&quot;#SvgjsMask1405&quot;)">
            <path d="M126.5 71.5L137.5 71.5L148.5 71.5M82.5 71.5L93.5 60.5L104.5 60.5L115.5 60.5L126.5 60.5M16.5 71.5L27.5 60.5L38.5 60.5M60.5 71.5L71.5 60.5L82.5 60.5L93.5 49.5L104.5 49.5M-5.5 71.5L5.5 71.5L16.5 71.5L27.5 71.5L38.5 71.5L49.5 71.5L60.5 71.5L71.5 71.5L82.5 71.5L93.5 71.5L104.5 71.5L115.5 71.5L126.5 71.5L137.5 60.5L148.5 60.5L159.5 60.5" stroke="#dd1133" stroke-width="1.83"></path>
            <path d="M156.75 60.5 a2.75 2.75 0 1 0 5.5 0 a2.75 2.75 0 1 0 -5.5 0zM145.75 71.5 a2.75 2.75 0 1 0 5.5 0 a2.75 2.75 0 1 0 -5.5 0zM123.75 60.5 a2.75 2.75 0 1 0 5.5 0 a2.75 2.75 0 1 0 -5.5 0zM35.75 60.5 a2.75 2.75 0 1 0 5.5 0 a2.75 2.75 0 1 0 -5.5 0zM101.75 49.5 a2.75 2.75 0 1 0 5.5 0 a2.75 2.75 0 1 0 -5.5 0z" fill="#dd1133"></path>
            <path d="M104.5 82.5L115.5 93.5L126.5 93.5L137.5 93.5L148.5 93.5M159.5 82.5L170.5 71.5M170.5 82.5L181.5 93.5L192.5 93.5L203.5 93.5M181.5 82.5L192.5 71.5M-5.5 82.5L5.5 82.5L16.5 82.5L27.5 82.5L38.5 82.5L49.5 82.5L60.5 82.5L71.5 82.5L82.5 82.5L93.5 82.5L104.5 82.5L115.5 82.5L126.5 82.5L137.5 82.5L148.5 82.5L159.5 82.5L170.5 82.5L181.5 82.5L192.5 82.5L203.5 82.5" stroke="#3a7cc3" stroke-width="1.83"></path>
            <path d="M200.75 82.5 a2.75 2.75 0 1 0 5.5 0 a2.75 2.75 0 1 0 -5.5 0zM145.75 93.5 a2.75 2.75 0 1 0 5.5 0 a2.75 2.75 0 1 0 -5.5 0zM167.75 71.5 a2.75 2.75 0 1 0 5.5 0 a2.75 2.75 0 1 0 -5.5 0zM200.75 93.5 a2.75 2.75 0 1 0 5.5 0 a2.75 2.75 0 1 0 -5.5 0zM189.75 71.5 a2.75 2.75 0 1 0 5.5 0 a2.75 2.75 0 1 0 -5.5 0z" fill="#3a7cc3"></path>
            <path d="M126.5 38.5L137.5 27.5L148.5 27.5L159.5 27.5L170.5 27.5M71.5 38.5L82.5 27.5L93.5 27.5M38.5 49.5L49.5 49.5M-5.5 60.5L5.5 60.5L16.5 49.5L27.5 49.5L38.5 49.5L49.5 38.5L60.5 38.5L71.5 38.5L82.5 38.5L93.5 38.5L104.5 38.5L115.5 38.5L126.5 38.5L137.5 38.5L148.5 38.5" stroke="#3a7cc3" stroke-width="1.83"></path>
            <path d="M145.75 38.5 a2.75 2.75 0 1 0 5.5 0 a2.75 2.75 0 1 0 -5.5 0zM167.75 27.5 a2.75 2.75 0 1 0 5.5 0 a2.75 2.75 0 1 0 -5.5 0zM90.75 27.5 a2.75 2.75 0 1 0 5.5 0 a2.75 2.75 0 1 0 -5.5 0zM46.75 49.5 a2.75 2.75 0 1 0 5.5 0 a2.75 2.75 0 1 0 -5.5 0z" fill="#3a7cc3"></path>
            <path d="M137.5 104.5L148.5 115.5L159.5 115.5L170.5 115.5L181.5 115.5M126.5 104.5L137.5 115.5L148.5 126.5L159.5 126.5L170.5 126.5L181.5 126.5L192.5 126.5L203.5 126.5M115.5 104.5L126.5 115.5L137.5 126.5M93.5 93.5L104.5 93.5M-5.5 93.5L5.5 93.5L16.5 93.5L27.5 93.5L38.5 93.5L49.5 93.5L60.5 93.5L71.5 93.5L82.5 93.5L93.5 93.5L104.5 104.5L115.5 104.5L126.5 104.5L137.5 104.5L148.5 104.5L159.5 104.5L170.5 104.5L181.5 104.5L192.5 104.5" stroke="#dd1133" stroke-width="1.83"></path>
            <path d="M189.75 104.5 a2.75 2.75 0 1 0 5.5 0 a2.75 2.75 0 1 0 -5.5 0zM178.75 115.5 a2.75 2.75 0 1 0 5.5 0 a2.75 2.75 0 1 0 -5.5 0zM200.75 126.5 a2.75 2.75 0 1 0 5.5 0 a2.75 2.75 0 1 0 -5.5 0zM134.75 126.5 a2.75 2.75 0 1 0 5.5 0 a2.75 2.75 0 1 0 -5.5 0zM101.75 93.5 a2.75 2.75 0 1 0 5.5 0 a2.75 2.75 0 1 0 -5.5 0z" fill="#dd1133"></path>
            <path d="M-5.5 49.5L5.5 49.5L16.5 38.5L27.5 38.5L38.5 38.5L49.5 27.5L60.5 27.5" stroke="#dd1133" stroke-width="1.83"></path>
            <path d="M57.75 27.5 a2.75 2.75 0 1 0 5.5 0 a2.75 2.75 0 1 0 -5.5 0z" fill="#dd1133"></path>
            <path d="M49.5 104.5L60.5 115.5M27.5 104.5L38.5 115.5L49.5 115.5M71.5 104.5L82.5 115.5L93.5 115.5L104.5 115.5L115.5 115.5M-5.5 104.5L5.5 104.5L16.5 104.5L27.5 104.5L38.5 104.5L49.5 104.5L60.5 104.5L71.5 104.5L82.5 104.5L93.5 104.5" stroke="#3a7cc3" stroke-width="1.83"></path>
            <path d="M90.75 104.5 a2.75 2.75 0 1 0 5.5 0 a2.75 2.75 0 1 0 -5.5 0zM57.75 115.5 a2.75 2.75 0 1 0 5.5 0 a2.75 2.75 0 1 0 -5.5 0zM46.75 115.5 a2.75 2.75 0 1 0 5.5 0 a2.75 2.75 0 1 0 -5.5 0zM112.75 115.5 a2.75 2.75 0 1 0 5.5 0 a2.75 2.75 0 1 0 -5.5 0z" fill="#3a7cc3"></path>
            <path d="M-5.5 38.5L5.5 38.5L16.5 27.5L27.5 27.5L38.5 27.5" stroke="#3a7cc3" stroke-width="1.83"></path>
            <path d="M35.75 27.5 a2.75 2.75 0 1 0 5.5 0 a2.75 2.75 0 1 0 -5.5 0z" fill="#3a7cc3"></path>
        </g>
    </g>
    <defs>
        <mask id="SvgjsMask1404">
            <rect width="250" height="150" fill="#ffffff"></rect>
        </mask>
        <mask id="SvgjsMask1405">
            <rect width="250" height="150" fill="white"></rect>
            <path d="M158.12 60.5 a1.38 1.38 0 1 0 2.76 0 a1.38 1.38 0 1 0 -2.76 0zM147.12 71.5 a1.38 1.38 0 1 0 2.76 0 a1.38 1.38 0 1 0 -2.76 0zM125.12 60.5 a1.38 1.38 0 1 0 2.76 0 a1.38 1.38 0 1 0 -2.76 0zM37.12 60.5 a1.38 1.38 0 1 0 2.76 0 a1.38 1.38 0 1 0 -2.76 0zM103.12 49.5 a1.38 1.38 0 1 0 2.76 0 a1.38 1.38 0 1 0 -2.76 0z" fill="black"></path>
            <path d="M202.12 82.5 a1.38 1.38 0 1 0 2.76 0 a1.38 1.38 0 1 0 -2.76 0zM147.12 93.5 a1.38 1.38 0 1 0 2.76 0 a1.38 1.38 0 1 0 -2.76 0zM169.12 71.5 a1.38 1.38 0 1 0 2.76 0 a1.38 1.38 0 1 0 -2.76 0zM202.12 93.5 a1.38 1.38 0 1 0 2.76 0 a1.38 1.38 0 1 0 -2.76 0zM191.12 71.5 a1.38 1.38 0 1 0 2.76 0 a1.38 1.38 0 1 0 -2.76 0z" fill="black"></path>
            <path d="M147.12 38.5 a1.38 1.38 0 1 0 2.76 0 a1.38 1.38 0 1 0 -2.76 0zM169.12 27.5 a1.38 1.38 0 1 0 2.76 0 a1.38 1.38 0 1 0 -2.76 0zM92.12 27.5 a1.38 1.38 0 1 0 2.76 0 a1.38 1.38 0 1 0 -2.76 0zM48.12 49.5 a1.38 1.38 0 1 0 2.76 0 a1.38 1.38 0 1 0 -2.76 0z" fill="black"></path>
            <path d="M191.12 104.5 a1.38 1.38 0 1 0 2.76 0 a1.38 1.38 0 1 0 -2.76 0zM180.12 115.5 a1.38 1.38 0 1 0 2.76 0 a1.38 1.38 0 1 0 -2.76 0zM202.12 126.5 a1.38 1.38 0 1 0 2.76 0 a1.38 1.38 0 1 0 -2.76 0zM136.12 126.5 a1.38 1.38 0 1 0 2.76 0 a1.38 1.38 0 1 0 -2.76 0zM103.12 93.5 a1.38 1.38 0 1 0 2.76 0 a1.38 1.38 0 1 0 -2.76 0z" fill="black"></path>
            <path d="M59.12 27.5 a1.38 1.38 0 1 0 2.76 0 a1.38 1.38 0 1 0 -2.76 0z" fill="black"></path>
            <path d="M92.12 104.5 a1.38 1.38 0 1 0 2.76 0 a1.38 1.38 0 1 0 -2.76 0zM59.12 115.5 a1.38 1.38 0 1 0 2.76 0 a1.38 1.38 0 1 0 -2.76 0zM48.12 115.5 a1.38 1.38 0 1 0 2.76 0 a1.38 1.38 0 1 0 -2.76 0zM114.12 115.5 a1.38 1.38 0 1 0 2.76 0 a1.38 1.38 0 1 0 -2.76 0z" fill="black"></path>
            <path d="M37.12 27.5 a1.38 1.38 0 1 0 2.76 0 a1.38 1.38 0 1 0 -2.76 0z" fill="black"></path>
        </mask>
    </defs>
</svg>